<svg width="40" height="40" viewBox="0 0 40 40" fill="none" xmlns="http://www.w3.org/2000/svg">
<rect width="40" height="40" rx="20" fill="#050505"/>
<path d="M16.5817 18.1854C16.5092 17.9169 16.4027 17.6804 16.2621 17.4759C16.1214 17.267 15.9489 17.0902 15.7443 16.9453C15.5398 16.8004 15.3054 16.6918 15.0412 16.6193C14.777 16.5426 14.4872 16.5043 14.1719 16.5043C13.5369 16.5043 12.9872 16.6577 12.5227 16.9645C12.0625 17.2713 11.7067 17.7187 11.4553 18.3068C11.2038 18.8906 11.0781 19.6001 11.0781 20.4354C11.0781 21.2749 11.1996 21.9908 11.4425 22.5831C11.6854 23.1754 12.0369 23.6271 12.4972 23.9382C12.9574 24.2493 13.5156 24.4048 14.1719 24.4048C14.7514 24.4048 15.2415 24.3111 15.642 24.1236C16.0469 23.9318 16.3537 23.6612 16.5625 23.3118C16.7713 22.9624 16.8757 22.5511 16.8757 22.0781L17.4638 22.1484H14.2805V19.8409H19.9247V21.5732C19.9247 22.745 19.6754 23.7486 19.1768 24.5838C18.6825 25.419 18.0007 26.0604 17.1314 26.5078C16.2663 26.9553 15.2713 27.179 14.1463 27.179C12.8977 27.179 11.8004 26.9084 10.8544 26.3672C9.90838 25.826 9.17116 25.0547 8.64276 24.0533C8.11435 23.0476 7.85014 21.8544 7.85014 20.4737C7.85014 19.3999 8.00994 18.4474 8.32955 17.6165C8.64915 16.7812 9.09446 16.0739 9.66548 15.4943C10.2408 14.9148 10.9055 14.4759 11.6598 14.1776C12.4183 13.8793 13.2344 13.7301 14.108 13.7301C14.8665 13.7301 15.5717 13.8388 16.2237 14.0561C16.88 14.2734 17.4595 14.5803 17.9624 14.9766C18.4695 15.3729 18.8807 15.8438 19.196 16.3892C19.5114 16.9347 19.7074 17.5334 19.7841 18.1854H16.5817ZM21.7896 27V13.9091H27.2484C28.2285 13.9091 29.0488 14.0476 29.7093 14.3246C30.3741 14.6016 30.8727 14.9893 31.2051 15.4879C31.5417 15.9865 31.7101 16.5639 31.7101 17.2202C31.7101 17.7188 31.6056 18.1641 31.3968 18.5561C31.188 18.9439 30.9004 19.2656 30.5339 19.5213C30.1674 19.777 29.7434 19.956 29.2619 20.0582V20.1861C29.7903 20.2116 30.2782 20.3544 30.7257 20.6143C31.1774 20.8743 31.5396 21.2365 31.8123 21.701C32.085 22.1612 32.2214 22.7067 32.2214 23.3374C32.2214 24.0405 32.0424 24.669 31.6845 25.223C31.3265 25.7727 30.8088 26.2074 30.1312 26.527C29.4537 26.8423 28.6312 27 27.6639 27H21.7896ZM24.9537 24.4496H26.9096C27.5957 24.4496 28.1007 24.3196 28.4245 24.0597C28.7527 23.7997 28.9167 23.4375 28.9167 22.973C28.9167 22.6364 28.8379 22.3466 28.6802 22.1037C28.5226 21.8565 28.2988 21.6669 28.0091 21.5348C27.7193 21.3984 27.372 21.3303 26.9672 21.3303H24.9537V24.4496ZM24.9537 19.2912H26.7051C27.0502 19.2912 27.3571 19.2337 27.6255 19.1186C27.894 19.0036 28.1028 18.8374 28.252 18.62C28.4054 18.4027 28.4821 18.1406 28.4821 17.8338C28.4821 17.3949 28.3265 17.0497 28.0154 16.7983C27.7044 16.5469 27.2846 16.4212 26.7562 16.4212H24.9537V19.2912Z" fill="white"/>
</svg>
