<svg id="Layer_1" data-name="Layer 1" xmlns="http://www.w3.org/2000/svg" viewBox="0 0 1200 1200"><defs><style>.cls-1{fill:#1d26d4;}</style></defs><path class="cls-1" d="M403.33,505.61l-75.61,184.1h-40.6l-69.3-184.1h54.95L309.87,619h.7L348,505.61Z"/><path class="cls-1" d="M465.26,505.61l3.85,25.2a69.39,69.39,0,0,1,57-29.4,62,62,0,0,1,49,24.15c14.35,18.55,16.45,42.35,16.45,68.6v95.55h-49.7v-93.1c0-13.65-.35-29.05-5.6-39.55-4.55-9.1-13.65-12.95-24.5-12.95-14.7,0-30.8,8.4-39.9,23.45V689.71h-49.7V505.61Z"/><path class="cls-1" d="M756.14,689.71,751.94,667c-13,20.3-37.8,27-56.7,27-48.65,0-85.75-43.41-85.75-97,0-51.8,36.4-95.55,86.45-95.55,17.5,0,39.55,6.3,53.55,22.05V426.14h49.7V689.71Zm-6.65-125.65c-12.6-14.7-27.3-19.95-42.7-19.95-31.85,0-46.55,28.35-46.55,54.25,0,26.95,17.5,52.85,45.85,52.85,15.75,0,32.55-6,43.4-24.15Z"/><path class="cls-1" d="M939.13,689.71,935.28,674c-11.9,14.71-30.45,20-50,20-34.3,0-66.15-20.66-66.15-58.46,0-45.15,42-59.5,80.15-59.5a164.52,164.52,0,0,1,33.25,3.85V577c0-23.1-9.45-37.1-36.4-37.1-21,0-39.55,7.7-55.65,16.1l-13.3-35.7c23.45-11.55,51.8-18.9,79.1-18.9,51.1,0,75.95,29.75,75.95,77.7v110.6Zm-6.65-80.15a115.12,115.12,0,0,0-25.2-3.15c-18.2,0-39.55,6.65-39.55,28.35,0,16.1,13.3,24.5,28,24.5,14.35,0,26.25-6.3,36.75-15.75Z"/><path class="cls-1" d="M548.68,727.43V751a14.45,14.45,0,0,1,11.82-5.87c10.7,0,18.58,8.63,18.58,19.55,0,9.82-7.36,19.41-18.74,19.41a16.56,16.56,0,0,1-11.67-4.91v4h-6.76V727.44h6.77Zm0,44.76a13.53,13.53,0,0,0,10.78,5.65c8.62,0,12.71-6.92,12.71-13.31,0-6.92-4.83-13.16-12.57-13.16-4,0-9.07,2.46-10.92,7.07Z"/><path class="cls-1" d="M590.16,746l9.67,28.17H600L609.86,746h7.36l-20.89,53.9-5.94-2.31,5.87-15.54L582.65,746Z"/><rect class="cls-1" x="691.01" y="718.07" width="12.29" height="64.99"/><path class="cls-1" d="M660.17,737.48a23.31,23.31,0,1,0,23.31,23.31A23.31,23.31,0,0,0,660.17,737.48Zm0,34.76a11.44,11.44,0,1,1,11.44-11.44A11.44,11.44,0,0,1,660.17,772.24Z"/><path class="cls-1" d="M751.39,755.42c-3.8-1.56-7.18-3-7.18-5.89,0-2.17,2.08-3.47,4.42-3.47a14,14,0,0,1,9,3.82l5.09-9.18c-5.14-3.08-8-4.25-14.09-4.25-8.3,0-16.27,4.68-16.27,13.95,0,8,6,11.09,11.42,13.43,4.5,2,8.66,3.38,8.66,6.59,0,2.77-3.3,4-5.8,4-4.42,0-7.27-2-10.73-5.37l-4.9,8.7c5.14,4.12,9.14,6.38,16.24,6.38,8.82,0,17.48-4.6,17.48-14.64C764.72,760.79,757.28,757.85,751.39,755.42Z"/><rect class="cls-1" x="712.36" y="737.48" width="" height="45.58"/><path class="cls-1" d="M795,772.32a10.57,10.57,0,0,1-4.93,1.29c-2.6,0-3.63-1.64-4-4.33a29.26,29.26,0,0,1-.17-3.9V747.7h11.59V737.48H785.87V727.42H775.48l-1.9,10.06h-5.45V747.7h5.45v19a26.77,26.77,0,0,0,.86,7.62c1.65,5.9,6.41,9.79,13.5,9.79a22.91,22.91,0,0,0,10.82-2.69Z"/><rect class="cls-1" x="712.36" y="718.06" width="40.29" height="40.48"/></svg>
